<svg xmlns="http://www.w3.org/2000/svg" xmlns:xlink="http://www.w3.org/1999/xlink" aria-hidden="true" role="img" class="iconify iconify--logos" width="35.93" height="32" preserveAspectRatio="xMidYMid meet" viewBox="0 0 256 228"><path fill="#00D8FF" d="M210.483 73.824a171.49 171.49 0 0 0-8.24-2.597c.465-1.9.893-3.777 1.273-5.621c6.238-30.281 2.16-54.676-11.769-62.708c-13.355-7.7-35.196.329-57.254 19.526a171.23 171.23 0 0 0-6.375 5.848a155.866 155.866 0 0 0-4.241-3.917C100.759 3.829 77.587-4.822 63.673 3.233C50.33 10.957 46.379 33.89 51.995 62.588a170.974 170.974 0 0 0 1.892 8.48c-3.28.932-6.445 1.924-9.474 2.98C17.309 83.498 0 98.307 0 113.668c0 15.865 18.582 31.778 46.812 41.427a145.52 145.52 0 0 0 6.921 2.165a167.467 167.467 0 0 0-2.01 9.138c-5.354 28.2-1.173 50.591 12.134 58.266c13.744 7.926 36.812-.22 59.273-19.855a145.567 145.567 0 0 0 5.342-4.923a168.064 168.064 0 0 0 6.92 6.314c21.758 18.722 43.246 26.282 56.54 18.586c13.731-7.949 18.194-32.003 12.4-61.268a145.016 145.016 0 0 0-1.535-6.842c1.62-.48 3.21-.974 4.76-1.488c29.348-9.723 48.443-25.443 48.443-41.52c0-15.417-17.868-30.326-45.517-39.844Zm-6.365 70.984c-1.596.54-3.233 1.061-4.902 1.568a138.756 138.756 0 0 0-5.477-12.619c3.448-4.79 6.675-9.76 9.568-14.906c8.296 2.614 15.377 5.47 21.011 8.406c-1.765 7.752-10.019 13.876-20.2 17.551Zm-8.983 7.995c-2.305 2.853-4.715 5.627-7.232 8.313c-4.25-.374-8.668-.733-13.234-1.07c-2.707-4.818-5.593-9.543-8.633-14.15c3.046-4.614 5.938-9.35 8.651-14.177c4.536-.332 8.926-.683 13.148-1.047c2.548 2.71 4.972 5.487 7.3 8.33c1.152 1.387 2.282 2.78 3.39 4.18a126.685 126.685 0 0 1-3.39 9.62Zm-105.626 27.12c-4.143-3.508-8.083-7.15-11.778-10.884c3.715-.172 7.524-.317 11.41-.437c1.197 3.736 2.487 7.43 3.868 11.069c-1.172-.245-2.336-.5-3.5-.748Zm-27.49-58.49c-1.423-4.152-2.72-8.367-3.868-12.618c3.923-1.058 8.054-2.025 12.354-2.894c-1.349 3.688-2.627 7.45-3.813 11.278c-1.587.705-3.15 1.43-4.673 2.234Zm5.046 9.02c2.03-5.696 4.298-11.322 6.79-16.842c2.504 5.49 4.784 11.11 6.82 16.842c-2.253.084-4.516.144-6.788.144c-2.277 0-4.545-.06-6.822-.144Zm19.544 2.43c1.24 3.673 2.555 7.31 3.939 10.89c-3.956.848-8.137 1.594-12.503 2.228c1.228-4.353 2.598-8.635 4.094-12.837c1.464.241 2.946.474 4.47.72Zm14.495 23.706c3.782 3.764 7.79 7.388 11.99 10.832c-3.842.194-7.787.347-11.827.46c-1.388-3.71-2.698-7.484-3.922-11.317c1.26.009 2.51.025 3.76.025Zm-3.745-39.98a155.866 155.866 0 0 0-4.241-3.917C100.759 3.829 77.587-4.822 63.673 3.233C50.33 10.957 46.379 33.89 51.995 62.588a170.974 170.974 0 0 0 1.892 8.48z"></path></svg>
